<?xml version="1.0" encoding="utf-8"?>
<!-- Generator: Adobe Illustrator 16.0.0, SVG Export Plug-In . SVG Version: 6.00 Build 0)  -->
<!DOCTYPE svg PUBLIC "-//W3C//DTD SVG 1.1//EN" "http://www.w3.org/Graphics/SVG/1.1/DTD/svg11.dtd">
<svg version="1.1" id="Capa_1" xmlns="http://www.w3.org/2000/svg" xmlns:xlink="http://www.w3.org/1999/xlink" x="0px" y="0px"
	 width="120px" height="120px" viewBox="0 0 120 120" enable-background="new 0 0 120 120" xml:space="preserve">
<path fill="#FFFFFF" d="M62.893,22.918L27.055,35.53l5.663,46.955l30.214,16.605L93.301,82.26l5.661-46.953L62.893,22.918z
	 M62.81,95.123L35.929,80.215l-4.853-41.994L62.81,26.91V95.123z M90.111,80.013L62.81,95.123V26.911l32.577,11.11L90.111,80.013z"
	/>
<path fill="#FFFFFF" d="M62.811,29.391l-0.001-0.002v0v0v0.001L40.651,78.683l8.264-0.152l4.443-11.113h9.451l0.021-0.01
	l10.386,0.01l4.864,11.269l7.907,0.146L62.811,29.391z M62.869,45.195l7.483,15.656h-7.187l-0.356-0.012h-6.536L62.869,45.195z"/>
</svg>
