<?xml version="1.0" encoding="utf-8"?>
<!-- Generator: Adobe Illustrator 16.0.0, SVG Export Plug-In . SVG Version: 6.00 Build 0)  -->
<!DOCTYPE svg PUBLIC "-//W3C//DTD SVG 1.1//EN" "http://www.w3.org/Graphics/SVG/1.1/DTD/svg11.dtd">
<svg version="1.1" id="Capa_1" xmlns="http://www.w3.org/2000/svg" xmlns:xlink="http://www.w3.org/1999/xlink" x="0px" y="0px"
	 width="120px" height="120px" viewBox="0 0 120 120" enable-background="new 0 0 120 120" xml:space="preserve">
<g>
	<path fill="#FFFFFF" d="M30.223,39.746h53.21c1.638,0,2.967-1.328,2.967-2.967c0-1.638-1.329-2.967-2.967-2.967h-53.21
		c-1.639,0-2.967,1.329-2.967,2.967C27.256,38.418,28.584,39.746,30.223,39.746z"/>
	<path fill="#FFFFFF" d="M30.223,52.406h53.21c1.638,0,2.967-1.329,2.967-2.967c0-1.639-1.329-2.967-2.967-2.967h-53.21
		c-1.639,0-2.967,1.328-2.967,2.967C27.256,51.077,28.584,52.406,30.223,52.406z"/>
	<path fill="#FFFFFF" d="M58.453,59.132h-28.23c-1.639,0-2.967,1.328-2.967,2.967s1.328,2.968,2.967,2.968h28.23
		c1.639,0,2.967-1.329,2.967-2.968S60.092,59.132,58.453,59.132z"/>
	<path fill="#FFFFFF" d="M105.424,104.243l-7.757-15.359l3.002-1.198c0.788-0.315,1.449-1.225,1.505-2.071l0.256-3.852
		c0.044-0.646,0.37-1.652,0.715-2.198l2.056-3.267c0.453-0.718,0.453-1.842,0-2.562l-2.056-3.265
		c-0.345-0.548-0.671-1.555-0.715-2.199l-0.254-3.852c-0.049-0.725-0.542-1.495-1.176-1.899V26.816c0-3.273-2.662-5.934-5.935-5.934
		H21.84c-3.271,0-5.934,2.661-5.934,5.934v50.831c0,3.272,2.662,5.935,5.934,5.935h46.675l0.134,2.032
		c0.057,0.847,0.718,1.756,1.507,2.071l2.817,1.125l-7.794,15.433c-0.239,0.475-0.175,0.762-0.079,0.917
		c0.062,0.1,0.211,0.266,0.525,0.266c0.157,0,0.339-0.043,0.539-0.126l6.384-2.674c0.157-0.065,0.344-0.101,0.54-0.101
		c0.471,0,0.947,0.195,1.218,0.495l3.067,3.4c0.256,0.282,0.571,0.438,0.892,0.438c0.42,0,0.796-0.271,1.008-0.727l6.01-12.962
		c0.014-0.001,0.025-0.001,0.039-0.001l6.008,12.963c0.212,0.456,0.588,0.727,1.011,0.727c0.317,0,0.634-0.156,0.891-0.438
		l3.066-3.4c0.271-0.3,0.75-0.495,1.219-0.495c0.194,0,0.382,0.035,0.539,0.101l6.386,2.674c0.199,0.083,0.381,0.126,0.538,0.126
		c0.315,0,0.465-0.166,0.524-0.266C105.601,105.005,105.664,104.718,105.424,104.243z M21.84,26.816h73.225l0.001,32.565
		l-2.32-2.791c-0.424-0.51-1.199-0.853-1.929-0.853c-0.178,0-0.349,0.021-0.506,0.062l-3.744,0.952
		c-0.597,0.151-1.713,0.151-2.309,0L80.514,55.8c-0.157-0.041-0.328-0.062-0.506-0.062c-0.73,0-1.505,0.343-1.931,0.853l-2.467,2.97
		c-0.413,0.496-1.27,1.119-1.868,1.357l-3.587,1.432c-0.789,0.314-1.45,1.225-1.505,2.071l-0.257,3.852
		c-0.042,0.645-0.368,1.651-0.714,2.199l-2.055,3.265c-0.453,0.718-0.453,1.844,0,2.562l0.848,1.35H21.84V26.816z M85.412,87.633
		c-6.968,0-12.615-5.647-12.615-12.615c0-6.967,5.647-12.616,12.615-12.616c6.967,0,12.615,5.649,12.615,12.616
		C98.027,81.985,92.379,87.633,85.412,87.633z"/>
</g>
</svg>
