<?xml version="1.0" encoding="utf-8"?>
<!-- Generator: Adobe Illustrator 16.0.0, SVG Export Plug-In . SVG Version: 6.00 Build 0)  -->
<!DOCTYPE svg PUBLIC "-//W3C//DTD SVG 1.1//EN" "http://www.w3.org/Graphics/SVG/1.1/DTD/svg11.dtd">
<svg version="1.1" id="Capa_1" xmlns="http://www.w3.org/2000/svg" xmlns:xlink="http://www.w3.org/1999/xlink" x="0px" y="0px"
	 width="120px" height="120px" viewBox="0 0 120 120" enable-background="new 0 0 120 120" xml:space="preserve">
<g>
	<g>
		<path fill="#FFFFFF" d="M100.294,27H16.705c-0.918,0-1.66,0.744-1.66,1.661v65.861c0,0.918,0.742,1.661,1.66,1.661h83.589
			c0.922,0,1.661-0.743,1.661-1.661V28.661C101.955,27.746,101.216,27,100.294,27z M93.782,41.994v45.839H23.217V41.994H93.782z"/>
		<path fill="#FFFFFF" d="M34.625,65.15c0.066,0.464,0.311,0.901,0.738,1.17l12.456,7.835c0.274,0.171,0.581,0.253,0.882,0.253
			c0.552,0,1.091-0.276,1.409-0.779c0.487-0.775,0.254-1.8-0.523-2.289L39.31,64.874l10.277-6.465
			c0.779-0.488,1.011-1.514,0.523-2.29c-0.488-0.775-1.514-1.008-2.291-0.522l-12.456,7.833c-0.429,0.27-0.672,0.704-0.738,1.171
			c-0.019,0.091-0.006,0.176-0.01,0.272C34.619,64.969,34.606,65.056,34.625,65.15z"/>
		<path fill="#FFFFFF" d="M66.893,73.704c0.314,0.502,0.856,0.778,1.407,0.778c0.305,0,0.609-0.082,0.882-0.253l12.456-7.833
			c0.432-0.271,0.672-0.708,0.739-1.172c0.02-0.094,0.007-0.182,0.007-0.272c0-0.094,0.013-0.182-0.007-0.272
			c-0.067-0.464-0.312-0.898-0.739-1.171l-12.456-7.83c-0.774-0.49-1.8-0.254-2.289,0.521c-0.49,0.775-0.253,1.802,0.521,2.29
			l10.277,6.463L67.414,71.42C66.634,71.903,66.402,72.932,66.893,73.704z"/>
		<path fill="#FFFFFF" d="M55.696,74.337c0.161,0.048,0.322,0.071,0.482,0.071c0.714,0,1.37-0.461,1.589-1.181l4.774-15.739
			c0.266-0.879-0.23-1.807-1.105-2.073c-0.88-0.268-1.806,0.231-2.073,1.108l-4.774,15.74C54.321,73.143,54.818,74.07,55.696,74.337
			z"/>
	</g>
</g>
</svg>
