<?xml version="1.0" encoding="utf-8"?>
<!-- Generator: Adobe Illustrator 16.0.0, SVG Export Plug-In . SVG Version: 6.00 Build 0)  -->
<!DOCTYPE svg PUBLIC "-//W3C//DTD SVG 1.1//EN" "http://www.w3.org/Graphics/SVG/1.1/DTD/svg11.dtd">
<svg version="1.1" id="Capa_1" xmlns="http://www.w3.org/2000/svg" xmlns:xlink="http://www.w3.org/1999/xlink" x="0px" y="0px"
	 width="120px" height="120px" viewBox="0 0 120 120" enable-background="new 0 0 120 120" xml:space="preserve">
<g>
	<path fill="#FFFFFF" d="M59,7C30.281,7,7,30.281,7,59s23.281,52,52,52s52-23.281,52-52S87.719,7,59,7z M89.881,89.881
		c-4.014,4.013-8.685,7.162-13.885,9.361c-1.321,0.56-2.662,1.051-4.021,1.472v-7.792c0-4.097-1.405-7.109-4.215-9.039
		c1.76-0.169,3.376-0.406,4.849-0.711s3.031-0.745,4.672-1.32c1.643-0.575,3.115-1.262,4.418-2.057
		c1.305-0.796,2.557-1.828,3.758-3.098c1.203-1.27,2.21-2.707,3.022-4.316c0.812-1.608,1.455-3.538,1.93-5.789
		c0.474-2.252,0.711-4.73,0.711-7.438c0-5.249-1.71-9.718-5.129-13.406c1.557-4.062,1.388-8.481-0.508-13.255l-1.27-0.152
		c-0.881-0.102-2.464,0.271-4.749,1.117c-2.285,0.847-4.849,2.233-7.692,4.165c-4.029-1.119-8.21-1.677-12.543-1.677
		c-4.367,0-8.531,0.558-12.492,1.677c-1.795-1.219-3.496-2.226-5.104-3.022s-2.895-1.337-3.859-1.625
		c-0.965-0.289-1.862-0.466-2.691-0.534s-1.362-0.084-1.599-0.051c-0.237,0.034-0.406,0.068-0.508,0.102
		c-1.896,4.807-2.065,9.225-0.508,13.255c-3.42,3.688-5.129,8.157-5.129,13.406c0,2.708,0.236,5.187,0.711,7.438
		c0.474,2.251,1.117,4.181,1.93,5.789c0.812,1.609,1.818,3.047,3.021,4.316s2.454,2.302,3.758,3.098
		c1.304,0.795,2.776,1.481,4.418,2.057s3.199,1.016,4.672,1.32s3.09,0.542,4.851,0.711c-2.776,1.896-4.164,4.909-4.164,9.039v7.945
		c-1.534-0.456-3.045-0.995-4.53-1.625c-5.2-2.199-9.87-5.349-13.884-9.361c-4.014-4.014-7.164-8.685-9.363-13.885
		C16.481,70.618,15.328,64.899,15.328,59s1.153-11.618,3.429-16.996c2.199-5.201,5.349-9.871,9.362-13.885
		c4.014-4.013,8.686-7.163,13.885-9.362c5.379-2.275,11.097-3.429,16.996-3.429s11.618,1.153,16.997,3.429
		c5.199,2.199,9.87,5.349,13.884,9.362s7.164,8.684,9.363,13.885c2.273,5.378,3.428,11.097,3.428,16.996s-1.154,11.618-3.43,16.996
		C97.043,81.196,93.894,85.867,89.881,89.881z"/>
</g>
</svg>
