<?xml version="1.0" encoding="utf-8"?>
<!-- Generator: Adobe Illustrator 16.0.0, SVG Export Plug-In . SVG Version: 6.00 Build 0)  -->
<!DOCTYPE svg PUBLIC "-//W3C//DTD SVG 1.1//EN" "http://www.w3.org/Graphics/SVG/1.1/DTD/svg11.dtd">
<svg version="1.1" id="Capa_1" xmlns="http://www.w3.org/2000/svg" xmlns:xlink="http://www.w3.org/1999/xlink" x="0px" y="0px"
	 width="120px" height="120px" viewBox="0 0 120 120" enable-background="new 0 0 120 120" xml:space="preserve">
<path fill="#FFFFFF" d="M57.979,26.311l5.303,59.479l23.796,6.604l23.861-6.615l5.309-59.468H57.979z M106.396,81.992l-19.239,5.333
	v0.012l-0.021-0.005l-0.021,0.005v-0.012l-19.238-5.333l-4.536-50.819h23.774h0.043h23.775L106.396,81.992z"/>
<polygon fill="#FFFFFF" points="87.113,38.469 87.088,38.469 68.821,38.469 69.485,45.763 87.088,45.763 87.113,45.763 
	97.367,45.763 96.704,53.233 87.113,53.233 87.088,53.233 70.136,53.233 70.79,60.528 87.088,60.528 87.113,60.528 96.07,60.528 
	95.225,69.988 87.088,72.185 87.088,72.185 87.081,72.187 78.957,69.993 78.438,64.176 74.49,64.176 71.115,64.176 72.138,75.629 
	87.079,79.776 87.113,79.769 87.113,79.767 102.042,75.629 102.152,74.396 103.866,55.191 104.044,53.233 105.361,38.469 "/>
<path fill="#FFFFFF" d="M4.881,26.311l5.303,59.479l23.796,6.604l23.862-6.615l5.309-59.468H4.881z M53.297,81.992l-19.239,5.333
	v0.012l-0.021-0.005l-0.021,0.005v-0.012l-19.239-5.333l-4.536-50.819h23.775h0.042h23.774L53.297,81.992z"/>
<polygon fill="#FFFFFF" points="34.016,38.469 33.991,38.469 15.725,38.469 15.898,40.425 17.692,60.528 33.991,60.528 
	34.016,60.528 42.973,60.528 42.126,69.988 33.991,72.185 33.991,72.185 33.983,72.187 25.86,69.993 25.34,64.176 21.393,64.176 
	18.018,64.176 19.04,75.629 33.982,79.776 34.016,79.769 34.016,79.767 48.945,75.629 49.055,74.396 50.769,55.191 50.947,53.233 
	48.981,53.233 34.016,53.233 33.991,53.233 24.363,53.233 23.696,45.763 33.991,45.763 34.016,45.763 51.588,45.763 51.611,45.763 
	51.757,44.124 52.09,40.425 52.265,38.469 "/>
</svg>
