<?xml version="1.0" encoding="utf-8"?>
<!-- Generator: Adobe Illustrator 16.0.0, SVG Export Plug-In . SVG Version: 6.00 Build 0)  -->
<!DOCTYPE svg PUBLIC "-//W3C//DTD SVG 1.1//EN" "http://www.w3.org/Graphics/SVG/1.1/DTD/svg11.dtd">
<svg version="1.1" id="Capa_1" xmlns="http://www.w3.org/2000/svg" xmlns:xlink="http://www.w3.org/1999/xlink" x="0px" y="0px"
	 width="120px" height="120px" viewBox="0 0 120 120" enable-background="new 0 0 120 120" xml:space="preserve">
<g>
	<path fill="#FFFFFF" d="M97.918,12.123h-58.14c-0.641,0-1.209,0.289-1.602,0.736l0,0c-0.329,0.375-0.537,0.861-0.537,1.402v18.299
		h-8.49c-0.639,0-1.207,0.291-1.6,0.735v0.002c-0.33,0.373-0.537,0.861-0.537,1.4v18.301h-8.492c-0.639,0-1.208,0.289-1.6,0.735l0,0
		c-0.329,0.375-0.537,0.861-0.537,1.402v47.879c0,1.178,0.958,2.139,2.137,2.139h58.142c1.179,0,2.138-0.961,2.138-2.139V84.715
		h8.491c1.178,0,2.137-0.957,2.137-2.137V64.279h8.491c1.179,0,2.137-0.961,2.137-2.139V14.262
		C100.055,13.082,99.097,12.123,97.918,12.123z M86.595,15.441c1.336,0,2.421,1.082,2.421,2.421c0,1.338-1.085,2.422-2.421,2.422
		c-1.338,0-2.422-1.084-2.422-2.422C84.173,16.523,85.257,15.441,86.595,15.441z M79.447,15.441c1.336,0,2.42,1.082,2.42,2.421
		c0,1.338-1.084,2.422-2.42,2.422c-1.339,0-2.423-1.084-2.423-2.422C77.024,16.523,78.108,15.441,79.447,15.441z M73.969,100.129
		H21.373V65.93h52.595L73.969,100.129L73.969,100.129z M55.768,58.739c0-1.339,1.084-2.421,2.422-2.421
		c1.336,0,2.42,1.082,2.42,2.421s-1.084,2.423-2.42,2.423C56.852,61.16,55.768,60.076,55.768,58.739z M62.916,58.739
		c0-1.339,1.084-2.421,2.423-2.421c1.336,0,2.421,1.082,2.421,2.421s-1.085,2.423-2.421,2.423C64,61.16,62.916,60.076,62.916,58.739
		z M72.354,61.16c-1.337,0-2.421-1.084-2.421-2.422s1.084-2.42,2.421-2.42c1.338,0,2.422,1.082,2.422,2.42
		S73.692,61.16,72.354,61.16z M84.597,79.691h-5.798V55.139c0-1.18-0.959-2.139-2.139-2.139H32v-7.51h52.596L84.597,79.691
		L84.597,79.691z M66.396,38.301c0-1.338,1.086-2.422,2.422-2.422c1.339,0,2.423,1.084,2.423,2.422s-1.084,2.42-2.423,2.42
		C67.481,40.721,66.396,39.639,66.396,38.301z M73.545,38.301c0-1.338,1.084-2.422,2.421-2.422s2.422,1.084,2.422,2.422
		s-1.085,2.42-2.422,2.42S73.545,39.639,73.545,38.301z M82.983,40.721c-1.338,0-2.423-1.082-2.423-2.42s1.085-2.422,2.423-2.422
		c1.337,0,2.423,1.084,2.423,2.422S84.32,40.721,82.983,40.721z M95.225,59.252h-5.798V34.7c0-1.179-0.959-2.14-2.138-2.14H42.63
		v-7.508h52.595V59.252z M93.611,20.283c-1.337,0-2.421-1.084-2.421-2.422s1.084-2.42,2.421-2.42c1.338,0,2.422,1.082,2.422,2.42
		S94.949,20.283,93.611,20.283z"/>
</g>
</svg>
