<?xml version="1.0" encoding="utf-8"?>
<!-- Generator: Adobe Illustrator 16.0.0, SVG Export Plug-In . SVG Version: 6.00 Build 0)  -->
<!DOCTYPE svg PUBLIC "-//W3C//DTD SVG 1.1//EN" "http://www.w3.org/Graphics/SVG/1.1/DTD/svg11.dtd">
<svg version="1.1" id="Capa_1" xmlns="http://www.w3.org/2000/svg" xmlns:xlink="http://www.w3.org/1999/xlink" x="0px" y="0px"
	 width="120px" height="120px" viewBox="0 0 120 120" enable-background="new 0 0 120 120" xml:space="preserve">
<g>
	<circle fill="#FFFFFF" cx="60.029" cy="60.031" r="7.294"/>
	<g>
		<path fill="#FFFFFF" d="M60.029,76.752c-10.246,0-19.204-1.211-25.906-3.502c-4.353-1.487-8.042-3.463-10.669-5.713
			c-2.793-2.392-4.269-4.987-4.269-7.506c0-4.822,5.297-9.548,14.171-12.642c7.276-2.537,16.748-3.934,26.673-3.934
			c9.738,0,19.085,1.372,26.319,3.862c4.229,1.456,7.8,3.339,10.322,5.445c2.748,2.293,4.201,4.807,4.201,7.269
			c0,5.013-5.923,10.09-15.457,13.249C78.657,75.519,69.641,76.752,60.029,76.752z M60.029,46.945
			c-9.405,0-18.708,1.363-25.523,3.739c-5.889,2.053-11.831,5.739-11.831,9.347c0,1.448,1.083,3.171,3.049,4.856
			c2.295,1.965,5.59,3.716,9.527,5.061c6.344,2.169,14.912,3.315,24.778,3.315c9.248,0,17.874-1.171,24.288-3.296
			c8.977-2.974,13.065-7.235,13.065-9.936c0-1.374-1.047-3.004-2.947-4.59c-2.201-1.837-5.391-3.505-9.223-4.825
			C78.335,48.249,69.392,46.945,60.029,46.945z"/>
	</g>
	<g>
		<path fill="#FFFFFF" d="M43.462,96.405c-1.488,0-2.801-0.321-3.9-0.956c-4.178-2.41-5.625-9.36-3.872-18.593
			c1.438-7.569,4.959-16.474,9.918-25.07c4.864-8.436,10.722-15.848,16.493-20.871c5.3-4.613,10.463-7.153,14.538-7.153
			c1.414,0,2.67,0.311,3.731,0.922c4.343,2.504,5.782,10.171,3.755,20.009c-1.437,6.973-4.872,15.399-9.674,23.726
			c-5.118,8.875-10.643,16.03-15.977,20.692C53.174,93.747,47.701,96.405,43.462,96.405z M76.639,27.253
			c-3.139,0-7.717,2.353-12.247,6.295C58.904,38.324,53.307,45.42,48.63,53.53c-4.698,8.147-8.165,16.886-9.512,23.978
			c-1.163,6.126-0.938,13.115,2.187,14.918c0.563,0.324,1.289,0.489,2.157,0.489c3.357,0,8.11-2.403,12.717-6.429
			c5.048-4.412,10.32-11.263,15.25-19.809c4.62-8.013,7.916-16.07,9.278-22.687c0.872-4.234,1.065-8.074,0.559-11.105
			c-0.437-2.608-1.373-4.447-2.64-5.177C78.102,27.406,77.434,27.253,76.639,27.253z"/>
	</g>
	<g>
		<path fill="#FFFFFF" d="M76.61,96.436c-4.017,0-9.068-2.442-14.223-6.879c-5.84-5.024-11.795-12.522-16.768-21.111
			c-4.879-8.429-8.375-17.206-9.844-24.714c-0.858-4.39-1.019-8.422-0.46-11.661c0.607-3.528,2.056-6.044,4.187-7.278
			c1.089-0.63,2.381-0.95,3.841-0.95c4.264,0,9.866,2.803,15.37,7.69c5.323,4.727,10.907,11.911,15.724,20.23
			c5.133,8.867,8.573,17.227,9.948,24.175c0.893,4.512,1.031,8.693,0.4,12.096c-0.671,3.614-2.177,6.192-4.357,7.455
			C79.343,96.116,78.058,96.436,76.61,96.436z M43.344,27.332c-0.838,0-1.542,0.162-2.093,0.48c-1.188,0.688-2.075,2.411-2.495,4.85
			c-0.487,2.825-0.333,6.421,0.445,10.399c1.396,7.139,4.749,15.532,9.439,23.635c4.713,8.14,10.553,15.508,16.023,20.215
			c6.329,5.446,10.462,6.034,11.946,6.034c0.825,0,1.522-0.16,2.07-0.479c2.342-1.355,4.055-6.895,2.282-15.853
			c-1.303-6.576-4.604-14.565-9.546-23.104c-4.634-8.004-9.969-14.883-15.021-19.369C51.595,29.877,46.715,27.332,43.344,27.332z"/>
	</g>
</g>
</svg>
