<?xml version="1.0" encoding="utf-8"?>
<!-- Generator: Adobe Illustrator 16.0.0, SVG Export Plug-In . SVG Version: 6.00 Build 0)  -->
<!DOCTYPE svg PUBLIC "-//W3C//DTD SVG 1.1//EN" "http://www.w3.org/Graphics/SVG/1.1/DTD/svg11.dtd">
<svg version="1.1" id="Capa_1" xmlns="http://www.w3.org/2000/svg" xmlns:xlink="http://www.w3.org/1999/xlink" x="0px" y="0px"
	 width="120px" height="120px" viewBox="0 0 120 120" enable-background="new 0 0 120 120" xml:space="preserve">
<path fill="#FFFFFF" d="M98.457,47.084c-0.006-0.044-0.014-0.087-0.024-0.13c-0.006-0.023-0.012-0.045-0.019-0.068
	c-0.014-0.044-0.032-0.087-0.052-0.129c-0.009-0.019-0.016-0.038-0.025-0.056c-0.032-0.059-0.068-0.116-0.111-0.169L88.591,34.58
	c-0.052-0.063-0.11-0.117-0.172-0.167c-0.017-0.014-0.034-0.025-0.051-0.038c-0.055-0.039-0.112-0.072-0.172-0.1
	c-0.01-0.005-0.018-0.012-0.028-0.016l-13.659-5.854c-0.137-0.059-0.284-0.089-0.433-0.089H46.391c-0.158,0-0.314,0.035-0.459,0.101
	L32.15,34.76c-0.011,0.005-0.02,0.013-0.03,0.018c-0.046,0.022-0.089,0.049-0.131,0.078c-0.017,0.012-0.034,0.022-0.051,0.035
	c-0.056,0.042-0.107,0.089-0.154,0.143L21.417,46.864c-0.046,0.053-0.086,0.109-0.12,0.168c-0.01,0.017-0.018,0.036-0.027,0.054
	c-0.021,0.043-0.042,0.086-0.059,0.131c-0.008,0.022-0.014,0.044-0.02,0.067c-0.013,0.043-0.022,0.086-0.03,0.13
	c-0.003,0.024-0.007,0.048-0.009,0.072c-0.005,0.046-0.005,0.092-0.004,0.139c0.001,0.016-0.002,0.032-0.001,0.048
	c0.001,0.006,0.003,0.012,0.004,0.018c0.006,0.062,0.017,0.125,0.033,0.186c0.001,0.004,0.001,0.009,0.003,0.014
	c0.019,0.064,0.044,0.127,0.074,0.188c0.011,0.021,0.024,0.039,0.035,0.059c0.018,0.03,0.033,0.061,0.054,0.09l37.442,52.2
	c0.021,0.03,0.049,0.052,0.073,0.079c0.025,0.029,0.05,0.06,0.077,0.085c0.041,0.038,0.086,0.069,0.133,0.101
	c0.029,0.02,0.057,0.042,0.088,0.059c0.055,0.029,0.113,0.051,0.172,0.07c0.027,0.009,0.052,0.022,0.079,0.029
	c0.086,0.021,0.175,0.034,0.266,0.035c0.002,0,0.004,0,0.005,0c0.012,0,0.023-0.004,0.034-0.004
	c0.079-0.003,0.158-0.012,0.233-0.031c0.026-0.006,0.052-0.02,0.079-0.029c0.061-0.02,0.12-0.041,0.177-0.072
	c0.007-0.004,0.016-0.006,0.022-0.01c0.049-0.027,0.09-0.061,0.133-0.094c0.013-0.012,0.027-0.02,0.041-0.029
	c0.062-0.055,0.116-0.115,0.163-0.18c0.003-0.003,0.006-0.006,0.009-0.01l37.687-52.565c0.016-0.022,0.027-0.046,0.041-0.069
	c0.013-0.02,0.025-0.04,0.036-0.06c0.024-0.047,0.045-0.095,0.062-0.144c0.004-0.013,0.011-0.026,0.015-0.04
	c0.021-0.064,0.034-0.13,0.042-0.196c0-0.003,0.002-0.006,0.002-0.01c0.002-0.013,0-0.026,0.001-0.039
	c0.004-0.05,0.005-0.101,0.001-0.151C98.463,47.13,98.46,47.107,98.457,47.084z M46.631,30.512h27.22l11.297,4.841l-12.31,6.257
	H47.132l-11.958-5.826L46.631,30.512z M79.881,58.686H38.685l8.842-14.879h24.545L79.881,58.686z M32.882,37.111l12.462,6.071
	L36.51,58.048l-12.7-10.584L32.882,37.111z M28.148,53.938l7.543,6.286l12.203,21.243L28.148,53.938z M59.594,97.424L38.601,60.881
	h40.996L59.594,97.424z M68.773,85.227l13.284-24.269c0.072-0.021,0.144-0.044,0.213-0.081c0.296-0.155,0.487-0.428,0.556-0.731
	l9.094-7.205L68.773,85.227z M82,58l-7.699-14.67l13.14-6.679l8.382,10.397L82,58z"/>
</svg>
