<?xml version="1.0" encoding="utf-8"?>
<!-- Generator: Adobe Illustrator 16.0.0, SVG Export Plug-In . SVG Version: 6.00 Build 0)  -->
<!DOCTYPE svg PUBLIC "-//W3C//DTD SVG 1.1//EN" "http://www.w3.org/Graphics/SVG/1.1/DTD/svg11.dtd">
<svg version="1.1" id="Capa_1" xmlns="http://www.w3.org/2000/svg" xmlns:xlink="http://www.w3.org/1999/xlink" x="0px" y="0px"
	 width="120px" height="120px" viewBox="0 0 120 120" enable-background="new 0 0 120 120" xml:space="preserve">
<g id="WURSDD_1_">
	<g>
		<path fill-rule="evenodd" clip-rule="evenodd" fill="#FFFFFF" d="M4.547,59.005c0.056-0.187,0.117-0.371,0.165-0.56
			c0.3-1.183,0.966-2.102,2.01-2.727c2.251-1.346,4.5-2.693,6.768-4.011c7.851-4.558,15.708-9.102,23.563-13.65
			c0.127-0.073,0.26-0.134,0.434-0.222c0.01,0.188,0.023,0.32,0.023,0.452c0.001,3.677-0.004,7.355,0.009,11.033
			c0.001,0.339-0.112,0.517-0.405,0.671c-4.816,2.539-9.63,5.088-14.442,7.637c-1.427,0.756-2.852,1.514-4.34,2.305
			c0.14,0.099,0.223,0.178,0.319,0.223c5.706,2.593,11.101,5.759,16.492,8.931c0.696,0.41,1.396,0.816,2.078,1.251
			c0.137,0.087,0.277,0.298,0.277,0.452c0.015,3.846,0.012,7.691,0.01,11.536c0,0.057-0.016,0.113-0.034,0.229
			c-0.188-0.104-0.345-0.186-0.496-0.275c-9.848-5.798-19.694-11.596-29.54-17.395c-1.452-0.854-2.28-2.163-2.716-3.754
			c-0.06-0.22-0.116-0.44-0.175-0.66C4.547,59.982,4.547,59.493,4.547,59.005z"/>
		<path fill-rule="evenodd" clip-rule="evenodd" fill="#FFFFFF" d="M114.453,61.295c-0.057,0.22-0.114,0.439-0.17,0.659
			c-0.303,1.182-0.973,2.095-2.019,2.721c-1.948,1.166-3.894,2.341-5.858,3.481c-8.156,4.733-16.319,9.456-24.48,14.182
			c-0.115,0.067-0.237,0.124-0.406,0.212c-0.013-0.188-0.029-0.331-0.029-0.475c-0.001-3.663,0.005-7.326-0.011-10.989
			c-0.001-0.363,0.122-0.546,0.427-0.706c4.914-2.59,9.822-5.188,14.731-7.786c1.214-0.642,2.427-1.287,3.639-1.932
			c0.117-0.062,0.229-0.137,0.408-0.244c-0.26-0.132-0.456-0.239-0.659-0.333c-4.666-2.141-9.126-4.669-13.556-7.251
			c-1.557-0.907-3.101-1.832-4.654-2.743c-0.212-0.124-0.334-0.253-0.333-0.531c0.011-3.801,0.007-7.602,0.008-11.402
			c0-0.088,0.013-0.175,0.024-0.333c0.185,0.1,0.327,0.172,0.465,0.253c9.849,5.8,19.695,11.603,29.545,17.401
			c1.532,0.901,2.378,2.277,2.799,3.959c0.04,0.162,0.086,0.322,0.13,0.482C114.453,60.379,114.453,60.837,114.453,61.295z"/>
		<path fill-rule="evenodd" clip-rule="evenodd" fill="#FFFFFF" d="M47.848,84.198c0.182-0.576,0.344-1.098,0.512-1.616
			c4.932-15.288,9.865-30.577,14.785-45.869c0.13-0.404,0.292-0.539,0.724-0.534c2.243,0.025,4.487,0.012,6.73,0.012
			c0.165,0,0.33,0,0.552,0c-0.179,0.562-0.336,1.068-0.5,1.572c-4.969,15.276-9.941,30.552-14.896,45.833
			c-0.153,0.473-0.354,0.622-0.85,0.615c-2.167-0.03-4.335-0.013-6.503-0.013C48.236,84.198,48.071,84.198,47.848,84.198z"/>
	</g>
</g>
</svg>
